<svg xmlns="http://www.w3.org/2000/svg" xmlns:xlink="http://www.w3.org/1999/xlink" viewBox="0 0 185.71 55.97"><defs><style>.cls-1{fill:url(#Degradado_sin_nombre_207);}.cls-2{fill:url(#Degradado_sin_nombre_207-2);}.cls-3{fill:url(#Degradado_sin_nombre_207-3);}.cls-4{fill:url(#Degradado_sin_nombre_207-4);}.cls-5{fill:url(#Degradado_sin_nombre_207-5);}.cls-6{fill:url(#Degradado_sin_nombre_207-6);}.cls-7{fill:url(#Degradado_sin_nombre_207-7);}.cls-8{fill:url(#Degradado_sin_nombre_207-8);}.cls-9{fill:none;stroke-linecap:round;stroke-linejoin:round;stroke-width:7px;stroke:url(#Degradado_sin_nombre_216);}</style><linearGradient id="Degradado_sin_nombre_207" x1="17.37" y1="17.69" x2="17.37" y2="46.73" gradientUnits="userSpaceOnUse"><stop offset="0" stop-color="#fdc800"/><stop offset="0.3" stop-color="#f18f34"/><stop offset="0.72" stop-color="#e6007e"/><stop offset="1" stop-color="#e6007e"/></linearGradient><linearGradient id="Degradado_sin_nombre_207-2" x1="42.58" y1="23.6" x2="42.58" y2="46.91" xlink:href="#Degradado_sin_nombre_207"/><linearGradient id="Degradado_sin_nombre_207-3" x1="64.78" y1="23.03" x2="64.78" y2="46.55" xlink:href="#Degradado_sin_nombre_207"/><linearGradient id="Degradado_sin_nombre_207-4" x1="86.98" y1="23.6" x2="86.98" y2="46.91" xlink:href="#Degradado_sin_nombre_207"/><linearGradient id="Degradado_sin_nombre_207-5" x1="107.87" y1="8.39" x2="107.87" y2="46.73" xlink:href="#Degradado_sin_nombre_207"/><linearGradient id="Degradado_sin_nombre_207-6" x1="132.31" y1="17.75" x2="132.31" y2="46.79" xlink:href="#Degradado_sin_nombre_207"/><linearGradient id="Degradado_sin_nombre_207-7" x1="148.84" y1="17.87" x2="148.84" y2="46.91" xlink:href="#Degradado_sin_nombre_207"/><linearGradient id="Degradado_sin_nombre_207-8" x1="171.16" y1="17.69" x2="171.16" y2="55.97" xlink:href="#Degradado_sin_nombre_207"/><linearGradient id="Degradado_sin_nombre_216" x1="64.78" x2="64.78" y2="21.01" gradientUnits="userSpaceOnUse"><stop offset="0.72" stop-color="#e6007e"/><stop offset="1" stop-color="#e6007e"/></linearGradient></defs><title>logo</title><g id="Capa_2" data-name="Capa 2"><g id="Capa_1-2" data-name="Capa 1"><g id="logo"><path class="cls-1" d="M10.69,17.69a11,11,0,0,1,3.51.57A9.66,9.66,0,0,1,17.35,20a10.34,10.34,0,0,1,6.72-2.34,10.46,10.46,0,0,1,4.05.81,11.25,11.25,0,0,1,3.42,2.19A10.3,10.3,0,0,1,33.88,24a9.77,9.77,0,0,1,.87,4.08V43.13a3.3,3.3,0,0,1-1.2,2.52,4,4,0,0,1-2.76,1.08,4,4,0,0,1-3.9-3.9V28.25a2.56,2.56,0,0,0-.81-1.92,2.78,2.78,0,0,0-2-.78,3,3,0,0,0-1.89.69,2.41,2.41,0,0,0-.87,2V42.83a3.71,3.71,0,0,1-1.17,2.76,3.86,3.86,0,0,1-2.79,1.14,4,4,0,0,1-2.7-1,3.27,3.27,0,0,1-1.2-2.55V28.25a2.68,2.68,0,0,0-.9-1.95,2.75,2.75,0,0,0-3.81,0,2.84,2.84,0,0,0-.87,2V43.19a3.77,3.77,0,0,1-1.23,2.49,3.75,3.75,0,0,1-2.67,1,4,4,0,0,1-1.56-.3,3.87,3.87,0,0,1-1.26-.84,4.3,4.3,0,0,1-.87-1.26A3,3,0,0,1,0,42.83V28.07a9.72,9.72,0,0,1,.84-4,10.59,10.59,0,0,1,2.28-3.3,11,11,0,0,1,3.39-2.25A10.43,10.43,0,0,1,10.69,17.69Z"/><path class="cls-2" d="M42.67,23.6a3.4,3.4,0,0,1,2.61,1.14,4.44,4.44,0,0,1,1.17,2.76V43a3.78,3.78,0,0,1-1,2.7,4,4,0,0,1-2.76,1.2A3.83,3.83,0,0,1,40,46a4.24,4.24,0,0,1-1.32-2.7v-16A3.72,3.72,0,0,1,40,24.68,4.17,4.17,0,0,1,42.67,23.6Z"/><path class="cls-3" d="M64.9,23a14.8,14.8,0,0,1,5.52,1A13.21,13.21,0,0,1,75,26.76a14.66,14.66,0,0,1,3.18,4.47,13.07,13.07,0,0,1,1.2,5.58v5.84a3.74,3.74,0,0,1-1.11,2.7,3.87,3.87,0,0,1-2.73,1.2,4,4,0,0,1-2.79-1,3.43,3.43,0,0,1-1.17-2.67V37.29A6.75,6.75,0,0,0,71,34.68a6.27,6.27,0,0,0-1.44-2.13,7.29,7.29,0,0,0-2.16-1.44,6.57,6.57,0,0,0-2.67-.54,6.38,6.38,0,0,0-2.52.51,7.14,7.14,0,0,0-2.1,1.35,6.27,6.27,0,0,0-1.44,2A6.07,6.07,0,0,0,58.15,37v5.66A3.7,3.7,0,0,1,57,45.38a3.84,3.84,0,0,1-2.76,1.17,4,4,0,0,1-2.76-1.08,3.42,3.42,0,0,1-1.2-2.64V37.29a15.2,15.2,0,0,1,1.17-5.64A14.55,14.55,0,0,1,54.46,27a14.1,14.1,0,0,1,4.68-2.86A14.37,14.37,0,0,1,64.9,23Z"/><path class="cls-4" d="M87.07,23.6a3.4,3.4,0,0,1,2.61,1.14,4.44,4.44,0,0,1,1.17,2.76V43a3.78,3.78,0,0,1-1,2.7,4,4,0,0,1-2.76,1.2,3.83,3.83,0,0,1-2.64-1,4.24,4.24,0,0,1-1.32-2.7v-16a3.72,3.72,0,0,1,1.26-2.58A4.17,4.17,0,0,1,87.07,23.6Z"/><path class="cls-5" d="M98.77,8.39a3.78,3.78,0,0,1,2.82,1.17,4.47,4.47,0,0,1,1.26,2.91v4.8h10.32a3.62,3.62,0,0,1,2.82,1.2,4.08,4.08,0,0,1,1.08,2.82,3.89,3.89,0,0,1-1.2,2.79,3.69,3.69,0,0,1-2.7,1.23H102.85v6.6a6.75,6.75,0,0,0,.51,2.61,7.21,7.21,0,0,0,1.41,2.19,6.43,6.43,0,0,0,2.13,1.5,6.57,6.57,0,0,0,2.67.54,7.56,7.56,0,0,0,2.67-.42,5.46,5.46,0,0,0,2-1.26A4.32,4.32,0,0,1,117,36a4,4,0,0,1,2.85,1.17,3.55,3.55,0,0,1,.9,1.23,4,4,0,0,1,.33,1.44,4.09,4.09,0,0,1-.21,1.47,3.18,3.18,0,0,1-.78,1.26,15.2,15.2,0,0,1-4.62,3.12,13.56,13.56,0,0,1-5.4,1.08,16.4,16.4,0,0,1-5.88-1,14.8,14.8,0,0,1-4.86-3A14.35,14.35,0,0,1,96,38a15.34,15.34,0,0,1-1.29-6.09V12.17a3.44,3.44,0,0,1,1.23-2.7A4.19,4.19,0,0,1,98.77,8.39Z"/><path class="cls-6" d="M127,46.79a3.72,3.72,0,0,1-2.7-1,4.13,4.13,0,0,1-1.2-2.79V31.85a13.56,13.56,0,0,1,1.23-5.43A14.59,14.59,0,0,1,127.42,22,14.81,14.81,0,0,1,132,19a15.7,15.7,0,0,1,5.55-1.23,3.73,3.73,0,0,1,2.79,1.14,4.29,4.29,0,0,1,1.23,2.76,3.66,3.66,0,0,1-1.14,2.73,4.11,4.11,0,0,1-2.82,1.17,6.55,6.55,0,0,0-4.68,1.92,6.9,6.9,0,0,0-1.44,2.13,6.57,6.57,0,0,0-.54,2.67V43.19a3.88,3.88,0,0,1-1.17,2.58A3.83,3.83,0,0,1,127,46.79Z"/><path class="cls-7" d="M148.93,17.87A3.4,3.4,0,0,1,151.54,19a4.44,4.44,0,0,1,1.17,2.76V43a3.78,3.78,0,0,1-1,2.7,4,4,0,0,1-2.76,1.2,3.83,3.83,0,0,1-2.64-1,4.24,4.24,0,0,1-1.32-2.7V21.53A3.72,3.72,0,0,1,146.23,19,4.17,4.17,0,0,1,148.93,17.87Z"/><path class="cls-8" d="M171.19,17.69a13.93,13.93,0,0,1,5.58,1.14A14.72,14.72,0,0,1,181.39,22a15.15,15.15,0,0,1,3.15,4.62,13.76,13.76,0,0,1,1.17,5.64,14.4,14.4,0,0,1-1.11,5.64,14.55,14.55,0,0,1-3.06,4.62,14.27,14.27,0,0,1-4.62,3.12,14.44,14.44,0,0,1-5.73,1.14,14.82,14.82,0,0,1-6.72-1.5v6.9a3.69,3.69,0,0,1-1.14,2.7A3.83,3.83,0,0,1,160.51,56a3.93,3.93,0,0,1-2.67-1,3.56,3.56,0,0,1-1.23-2.61V32.21a13.62,13.62,0,0,1,1.17-5.58,15,15,0,0,1,7.77-7.77A13.76,13.76,0,0,1,171.19,17.69Zm-6.72,14.52a6.72,6.72,0,0,0,.54,2.73,6.65,6.65,0,0,0,1.47,2.13,6.84,6.84,0,0,0,2.16,1.41,6.6,6.6,0,0,0,2.55.51,6.36,6.36,0,0,0,2.64-.54,6.75,6.75,0,0,0,2.1-1.47,6.84,6.84,0,0,0,1.41-2.16,6.75,6.75,0,0,0,.51-2.61,6.42,6.42,0,0,0-.54-2.61,6.9,6.9,0,0,0-1.44-2.13,6.73,6.73,0,0,0-7.35-1.38,6.9,6.9,0,0,0-2.13,1.44,6.55,6.55,0,0,0-1.92,4.68Z"/><polyline class="cls-9" points="42.58 17.51 64.78 3.5 86.98 17.51"/></g></g></g></svg>