<svg xmlns="http://www.w3.org/2000/svg" xmlns:xlink="http://www.w3.org/1999/xlink" viewBox="0 0 52.14 46.91"><defs><style>.cls-1{fill:url(#Degradado_sin_nombre_208);}.cls-2{fill:url(#Degradado_sin_nombre_208-2);}.cls-3{fill:url(#Degradado_sin_nombre_208-3);}.cls-4{fill:none;stroke:#e6007e;stroke-linecap:round;stroke-linejoin:round;stroke-width:7px;}</style><linearGradient id="Degradado_sin_nombre_208" x1="3.87" y1="23.6" x2="3.87" y2="46.91" gradientUnits="userSpaceOnUse"><stop offset="0" stop-color="#fdc800"/><stop offset="0.3" stop-color="#fdc801"/><stop offset="0.72" stop-color="#e6007e"/><stop offset="1" stop-color="#e6007e"/></linearGradient><linearGradient id="Degradado_sin_nombre_208-2" x1="26.07" y1="23.03" x2="26.07" y2="46.55" xlink:href="#Degradado_sin_nombre_208"/><linearGradient id="Degradado_sin_nombre_208-3" x1="48.27" y1="23.6" x2="48.27" y2="46.91" xlink:href="#Degradado_sin_nombre_208"/></defs><title>Recurso 8</title><g id="Capa_2" data-name="Capa 2"><g id="Capa_1-2" data-name="Capa 1"><g id="favicon"><path class="cls-1" d="M4,23.6a3.4,3.4,0,0,1,2.61,1.14A4.44,4.44,0,0,1,7.74,27.5V43a3.78,3.78,0,0,1-1,2.7A4,4,0,0,1,4,46.91a3.83,3.83,0,0,1-2.64-1A4.24,4.24,0,0,1,0,43.25v-16a3.72,3.72,0,0,1,1.26-2.58A4.17,4.17,0,0,1,4,23.6Z"/><path class="cls-2" d="M26.19,23a14.8,14.8,0,0,1,5.52,1,13.21,13.21,0,0,1,4.53,2.68,14.66,14.66,0,0,1,3.18,4.47,13.07,13.07,0,0,1,1.2,5.58v5.84a3.74,3.74,0,0,1-1.11,2.7,3.87,3.87,0,0,1-2.73,1.2,4,4,0,0,1-2.79-1,3.43,3.43,0,0,1-1.17-2.67V37.29a6.75,6.75,0,0,0-.51-2.61,6.27,6.27,0,0,0-1.44-2.13,7.29,7.29,0,0,0-2.16-1.44A6.57,6.57,0,0,0,26,30.57a6.38,6.38,0,0,0-2.52.51,7.14,7.14,0,0,0-2.1,1.35,6.27,6.27,0,0,0-1.44,2A6.07,6.07,0,0,0,19.44,37v5.66a3.7,3.7,0,0,1-1.2,2.73,3.84,3.84,0,0,1-2.76,1.17,4,4,0,0,1-2.76-1.08,3.42,3.42,0,0,1-1.2-2.64V37.29a15.2,15.2,0,0,1,1.17-5.64A14.55,14.55,0,0,1,15.75,27a14.1,14.1,0,0,1,4.68-2.86A14.37,14.37,0,0,1,26.19,23Z"/><path class="cls-3" d="M48.36,23.6A3.4,3.4,0,0,1,51,24.74a4.44,4.44,0,0,1,1.17,2.76V43a3.78,3.78,0,0,1-1,2.7,4,4,0,0,1-2.76,1.2,3.83,3.83,0,0,1-2.64-1,4.24,4.24,0,0,1-1.32-2.7v-16a3.72,3.72,0,0,1,1.26-2.58A4.17,4.17,0,0,1,48.36,23.6Z"/><polyline class="cls-4" points="3.87 17.51 26.07 3.5 48.27 17.51"/></g></g></g></svg>